<svg width="1440" height="900" viewBox="0 0 1440 900" fill="none" xmlns="http://www.w3.org/2000/svg">
<rect width="1440" height="900" fill="#F1F5F9"/>
<rect width="1440" height="110" fill="white"/>
<rect x="40" y="20" width="145" height="28" rx="14" fill="#0F172A"/>
<text x="54" y="39" font-family="Arial, sans-serif" font-size="16" font-weight="700" fill="white">Premium Catalog 3</text>
<text x="40" y="84" font-family="Arial, sans-serif" font-size="34" font-weight="700" fill="#0F172A">FakeStore Product Catalog</text>
<rect x="890" y="30" width="270" height="44" rx="16" fill="#F8FAFC" stroke="#CBD5E1"/>
<text x="913" y="58" font-family="Arial, sans-serif" font-size="18" fill="#94A3B8">Buscar produtos...</text>
<rect x="1180" y="30" width="190" height="44" rx="16" fill="#F8FAFC" stroke="#CBD5E1"/>
<text x="1210" y="58" font-family="Arial, sans-serif" font-size="18" fill="#475569">Ordenar por</text>
<rect x="40" y="140" width="1360" height="90" rx="26" fill="white" stroke="#E2E8F0"/>
<text x="70" y="170" font-family="Arial, sans-serif" font-size="18" fill="#64748B">Catálogo</text>
<text x="70" y="205" font-family="Arial, sans-serif" font-size="34" font-weight="700" fill="#0F172A">Explore os produtos</text>
<rect x="1030" y="170" width="195" height="35" rx="18" fill="#F1F5F9"/>
<text x="1048" y="192" font-family="Arial, sans-serif" font-size="15" font-weight="700" fill="#334155">12 produtos encontrados</text>
<rect x="1245" y="164" width="115" height="46" rx="14" fill="white" stroke="#CBD5E1"/>
<text x="1261" y="192" font-family="Arial, sans-serif" font-size="16" font-weight="700" fill="#334155">Limpar filtros</text>
<rect x="70" y="240" width="130" height="40" rx="18" fill="#0F172A"/>
<text x="90" y="265" font-family="Arial, sans-serif" font-size="15" font-weight="700" fill="white">Todos os produtos</text>
<rect x="215" y="240" width="125" height="40" rx="18" fill="#F1F5F9"/>
<text x="233" y="265" font-family="Arial, sans-serif" font-size="15" font-weight="700" fill="#334155">Favoritos (3)</text>
<rect x="40" y="260" width="260" height="600" rx="28" fill="white" stroke="#E2E8F0"/>
<text x="65" y="290" font-family="Arial, sans-serif" font-size="16" fill="#64748B">Categorias</text>
<text x="65" y="322" font-family="Arial, sans-serif" font-size="24" font-weight="700" fill="#0F172A">Filtrar catálogo</text>
<rect x="65" y="360" width="210" height="44" rx="16" fill="#0F172A"/>
<text x="83" y="388" font-family="Arial, sans-serif" font-size="15" font-weight="700" fill="white">Todas as categorias</text>
<rect x="65" y="416" width="210" height="44" rx="16" fill="#F1F5F9"/>
<text x="83" y="444" font-family="Arial, sans-serif" font-size="15" font-weight="700" fill="#334155">electronics</text>
<rect x="65" y="472" width="210" height="44" rx="16" fill="#F1F5F9"/>
<text x="83" y="500" font-family="Arial, sans-serif" font-size="15" font-weight="700" fill="#334155">jewelery</text>
<rect x="65" y="528" width="210" height="44" rx="16" fill="#F1F5F9"/>
<text x="83" y="556" font-family="Arial, sans-serif" font-size="15" font-weight="700" fill="#334155">men's clothing</text>
<rect x="65" y="584" width="210" height="44" rx="16" fill="#F1F5F9"/>
<text x="83" y="612" font-family="Arial, sans-serif" font-size="15" font-weight="700" fill="#334155">women's clothing</text>
<rect x="340" y="260" width="320" height="270" rx="28" fill="white" stroke="#E2E8F0"/>
<rect x="340" y="260" width="320" height="130" rx="28" fill="#F8FAFC"/>
<circle cx="500" cy="324" r="38" fill="#E2E8F0"/>
<rect x="358" y="278" width="92" height="24" rx="12" fill="white" stroke="#E2E8F0"/>
<text x="368" y="294" font-family="Arial, sans-serif" font-size="12" font-weight="700" fill="#475569">electronics</text>
<rect x="618" y="278" width="24" height="24" rx="12" fill="white"/>
<text x="624" y="295" font-family="Arial, sans-serif" font-size="16" font-weight="700" fill="#0F172A">♡</text>
<text x="362" y="418" font-family="Arial, sans-serif" font-size="18" font-weight="700" fill="#0F172A">Wireless Headphones</text>
<text x="362" y="444" font-family="Arial, sans-serif" font-size="14" fill="#64748B">Som premium e design moderno</text>
<text x="362" y="488" font-family="Arial, sans-serif" font-size="28" font-weight="700" fill="#0F172A">R$ 199,90</text>
<rect x="560" y="474" width="80" height="34" rx="14" fill="#0F172A"/>
<text x="579" y="496" font-family="Arial, sans-serif" font-size="13" font-weight="700" fill="white">Ver item</text>
<rect x="684" y="260" width="320" height="270" rx="28" fill="white" stroke="#E2E8F0"/>
<rect x="684" y="260" width="320" height="130" rx="28" fill="#F8FAFC"/>
<circle cx="844" cy="324" r="38" fill="#E2E8F0"/>
<rect x="702" y="278" width="92" height="24" rx="12" fill="white" stroke="#E2E8F0"/>
<text x="712" y="294" font-family="Arial, sans-serif" font-size="12" font-weight="700" fill="#475569">electronics</text>
<rect x="962" y="278" width="24" height="24" rx="12" fill="white"/>
<text x="968" y="295" font-family="Arial, sans-serif" font-size="16" font-weight="700" fill="#0F172A">♡</text>
<text x="706" y="418" font-family="Arial, sans-serif" font-size="18" font-weight="700" fill="#0F172A">Wireless Headphones</text>
<text x="706" y="444" font-family="Arial, sans-serif" font-size="14" fill="#64748B">Som premium e design moderno</text>
<text x="706" y="488" font-family="Arial, sans-serif" font-size="28" font-weight="700" fill="#0F172A">R$ 199,90</text>
<rect x="904" y="474" width="80" height="34" rx="14" fill="#0F172A"/>
<text x="923" y="496" font-family="Arial, sans-serif" font-size="13" font-weight="700" fill="white">Ver item</text>
<rect x="1028" y="260" width="320" height="270" rx="28" fill="white" stroke="#E2E8F0"/>
<rect x="1028" y="260" width="320" height="130" rx="28" fill="#F8FAFC"/>
<circle cx="1188" cy="324" r="38" fill="#E2E8F0"/>
<rect x="1046" y="278" width="92" height="24" rx="12" fill="white" stroke="#E2E8F0"/>
<text x="1056" y="294" font-family="Arial, sans-serif" font-size="12" font-weight="700" fill="#475569">electronics</text>
<rect x="1306" y="278" width="24" height="24" rx="12" fill="white"/>
<text x="1312" y="295" font-family="Arial, sans-serif" font-size="16" font-weight="700" fill="#0F172A">♡</text>
<text x="1050" y="418" font-family="Arial, sans-serif" font-size="18" font-weight="700" fill="#0F172A">Wireless Headphones</text>
<text x="1050" y="444" font-family="Arial, sans-serif" font-size="14" fill="#64748B">Som premium e design moderno</text>
<text x="1050" y="488" font-family="Arial, sans-serif" font-size="28" font-weight="700" fill="#0F172A">R$ 199,90</text>
<rect x="1248" y="474" width="80" height="34" rx="14" fill="#0F172A"/>
<text x="1267" y="496" font-family="Arial, sans-serif" font-size="13" font-weight="700" fill="white">Ver item</text>
<rect x="340" y="554" width="320" height="270" rx="28" fill="white" stroke="#E2E8F0"/>
<rect x="340" y="554" width="320" height="130" rx="28" fill="#F8FAFC"/>
<circle cx="500" cy="618" r="38" fill="#E2E8F0"/>
<rect x="358" y="572" width="92" height="24" rx="12" fill="white" stroke="#E2E8F0"/>
<text x="368" y="588" font-family="Arial, sans-serif" font-size="12" font-weight="700" fill="#475569">electronics</text>
<rect x="618" y="572" width="24" height="24" rx="12" fill="white"/>
<text x="624" y="589" font-family="Arial, sans-serif" font-size="16" font-weight="700" fill="#0F172A">♡</text>
<text x="362" y="712" font-family="Arial, sans-serif" font-size="18" font-weight="700" fill="#0F172A">Wireless Headphones</text>
<text x="362" y="738" font-family="Arial, sans-serif" font-size="14" fill="#64748B">Som premium e design moderno</text>
<text x="362" y="782" font-family="Arial, sans-serif" font-size="28" font-weight="700" fill="#0F172A">R$ 199,90</text>
<rect x="560" y="768" width="80" height="34" rx="14" fill="#0F172A"/>
<text x="579" y="790" font-family="Arial, sans-serif" font-size="13" font-weight="700" fill="white">Ver item</text>
<rect x="684" y="554" width="320" height="270" rx="28" fill="white" stroke="#E2E8F0"/>
<rect x="684" y="554" width="320" height="130" rx="28" fill="#F8FAFC"/>
<circle cx="844" cy="618" r="38" fill="#E2E8F0"/>
<rect x="702" y="572" width="92" height="24" rx="12" fill="white" stroke="#E2E8F0"/>
<text x="712" y="588" font-family="Arial, sans-serif" font-size="12" font-weight="700" fill="#475569">electronics</text>
<rect x="962" y="572" width="24" height="24" rx="12" fill="white"/>
<text x="968" y="589" font-family="Arial, sans-serif" font-size="16" font-weight="700" fill="#0F172A">♡</text>
<text x="706" y="712" font-family="Arial, sans-serif" font-size="18" font-weight="700" fill="#0F172A">Wireless Headphones</text>
<text x="706" y="738" font-family="Arial, sans-serif" font-size="14" fill="#64748B">Som premium e design moderno</text>
<text x="706" y="782" font-family="Arial, sans-serif" font-size="28" font-weight="700" fill="#0F172A">R$ 199,90</text>
<rect x="904" y="768" width="80" height="34" rx="14" fill="#0F172A"/>
<text x="923" y="790" font-family="Arial, sans-serif" font-size="13" font-weight="700" fill="white">Ver item</text>
<rect x="1028" y="554" width="320" height="270" rx="28" fill="white" stroke="#E2E8F0"/>
<rect x="1028" y="554" width="320" height="130" rx="28" fill="#F8FAFC"/>
<circle cx="1188" cy="618" r="38" fill="#E2E8F0"/>
<rect x="1046" y="572" width="92" height="24" rx="12" fill="white" stroke="#E2E8F0"/>
<text x="1056" y="588" font-family="Arial, sans-serif" font-size="12" font-weight="700" fill="#475569">electronics</text>
<rect x="1306" y="572" width="24" height="24" rx="12" fill="white"/>
<text x="1312" y="589" font-family="Arial, sans-serif" font-size="16" font-weight="700" fill="#0F172A">♡</text>
<text x="1050" y="712" font-family="Arial, sans-serif" font-size="18" font-weight="700" fill="#0F172A">Wireless Headphones</text>
<text x="1050" y="738" font-family="Arial, sans-serif" font-size="14" fill="#64748B">Som premium e design moderno</text>
<text x="1050" y="782" font-family="Arial, sans-serif" font-size="28" font-weight="700" fill="#0F172A">R$ 199,90</text>
<rect x="1248" y="768" width="80" height="34" rx="14" fill="#0F172A"/>
<text x="1267" y="790" font-family="Arial, sans-serif" font-size="13" font-weight="700" fill="white">Ver item</text>
</svg>